<?xml version="1.0" standalone="no"?>
<!DOCTYPE svg PUBLIC "-//W3C//DTD SVG 20010904//EN"
 "http://www.w3.org/TR/2001/REC-SVG-20010904/DTD/svg10.dtd">
<svg version="1.0" xmlns="http://www.w3.org/2000/svg"
 width="571.000000pt" height="571.000000pt" viewBox="0 0 571.000000 571.000000"
 preserveAspectRatio="xMidYMid meet">

<g transform="translate(0.000000,571.000000) scale(0.100000,-0.100000)"
fill="#000000" stroke="none">
<path d="M0 2855 l0 -2855 2855 0 2855 0 0 2855 0 2855 -2855 0 -2855 0 0
-2855z m3470 2275 c27 -27 25 -52 -5 -88 -48 -58 -146 -80 -273 -62 -71 9
-181 6 -169 -6 2 -2 39 -13 83 -25 87 -22 151 -58 163 -92 13 -32 4 -34 -20
-3 -34 44 -96 68 -227 90 -30 5 -32 4 -22 -15 6 -11 9 -27 6 -37 -5 -15 -21
-17 -123 -17 -130 0 -206 -11 -182 -26 8 -5 85 -9 172 -9 98 0 157 -4 157 -10
0 -6 -39 -10 -97 -10 -53 0 -93 -3 -90 -6 4 -4 53 -10 111 -13 l104 -6 -20
-25 c-20 -24 -25 -25 -172 -29 -175 -5 -146 -19 42 -20 111 -1 112 -1 112 -25
0 -29 -16 -36 -81 -36 -27 0 -49 -4 -49 -10 0 -5 21 -10 48 -11 26 0 41 -3 35
-6 -23 -9 -14 -21 20 -29 l32 -7 -32 -14 c-18 -7 -33 -19 -33 -26 -3 -67 -14
-192 -30 -340 -11 -97 -20 -208 -20 -245 -1 -104 -24 -213 -61 -282 -44 -82
-133 -164 -234 -212 -58 -28 -71 -37 -45 -33 62 11 178 72 231 122 91 85 133
185 145 345 7 83 9 89 17 58 5 -19 7 -82 5 -140 -4 -82 -10 -119 -29 -166 -30
-72 -142 -251 -147 -235 -2 6 -8 11 -13 11 -4 0 -6 -6 -3 -14 3 -7 -2 -20 -10
-29 -9 -9 -16 -19 -16 -23 0 -15 -90 -70 -127 -78 -10 -1 -36 -11 -57 -20 -27
-12 -78 -20 -155 -23 -64 -3 -121 -9 -126 -14 -10 -7 -71 3 -130 23 -16 5 -69
12 -117 15 -123 8 -199 -22 -198 -79 1 -33 15 -38 56 -19 70 34 151 42 401 39
l238 -3 80 31 c194 75 358 222 447 402 23 45 43 81 44 79 2 -2 -4 -32 -12 -67
-14 -61 -85 -207 -107 -221 -5 -4 -6 -12 -3 -18 4 -6 2 -11 -3 -11 -6 0 -11
-5 -11 -11 0 -8 5 -8 15 1 8 7 15 18 15 25 0 7 37 51 82 97 45 45 76 74 71 63
-6 -11 -21 -29 -32 -39 -12 -11 -21 -23 -21 -28 0 -15 54 19 138 87 45 36 82
63 82 59 0 -4 9 1 20 11 29 26 25 10 -7 -27 -124 -144 -311 -315 -438 -400
-99 -67 -86 -68 52 -3 125 59 167 90 313 230 69 66 140 125 158 132 39 14 40
16 -48 -96 -36 -46 -65 -88 -66 -94 -3 -39 -18 -76 -28 -70 -6 4 -6 0 2 -9 10
-12 10 -17 -1 -27 -8 -6 -18 -7 -22 -3 -5 4 -5 2 -1 -5 7 -13 -25 -35 -46 -31
-7 2 -12 -3 -10 -10 1 -8 -2 -11 -8 -7 -6 4 -23 -5 -37 -19 -14 -14 -30 -26
-35 -26 -5 0 -6 -4 -3 -10 3 -5 1 -10 -5 -10 -7 0 -35 -21 -63 -46 -28 -25
-82 -61 -119 -80 -186 -94 -344 -103 -630 -35 -195 45 -309 53 -374 26 -31
-13 -35 -18 -29 -37 18 -59 17 -74 -10 -106 -74 -88 -287 -56 -287 43 0 15 7
33 16 41 9 8 11 9 6 2 -19 -23 -11 -67 16 -85 38 -24 127 -30 159 -9 31 21 31
31 0 68 -39 46 -35 101 10 143 34 33 34 33 16 57 -51 64 -13 149 92 212 49 28
92 72 101 102 4 13 -4 43 -20 79 -24 52 -25 61 -14 99 8 29 30 59 75 101 34
33 65 69 69 79 4 12 -3 38 -20 69 -32 63 -27 93 22 113 50 21 79 13 37 -9 -41
-22 -43 -50 -8 -97 38 -51 33 -91 -15 -144 -22 -24 -40 -48 -40 -54 0 -34 101
-42 165 -13 46 21 105 82 134 139 22 43 41 143 35 182 -52 355 -61 500 -35
573 7 21 11 41 8 43 -8 8 -154 -53 -242 -101 -128 -69 -223 -141 -330 -249
-219 -219 -367 -486 -451 -811 -65 -252 -82 -436 -65 -675 13 -172 50 -404 82
-518 16 -58 20 -96 17 -169 -3 -89 -5 -96 -31 -119 -25 -21 -38 -24 -108 -24
-60 0 -80 3 -77 13 3 7 32 14 77 17 57 4 76 9 87 24 23 32 18 162 -10 274 -42
163 -65 313 -77 496 -30 457 66 864 292 1232 120 197 310 390 504 511 76 48
249 130 326 155 63 20 69 24 83 63 9 22 16 46 16 52 0 35 102 85 205 99 41 6
46 8 27 15 -12 5 -22 15 -22 23 0 20 50 35 156 46 49 5 112 14 139 20 28 6
104 9 170 8 165 -3 275 30 275 83 0 10 -12 22 -27 27 l-28 10 28 1 c15 1 36
-8 47 -19z m-40 -479 c326 -129 624 -411 794 -750 101 -201 174 -426 208 -644
8 -51 13 -171 13 -317 -1 -262 -13 -371 -67 -576 -22 -84 -33 -149 -35 -219
-5 -129 2 -138 118 -144 104 -4 91 -21 -17 -21 -77 0 -87 2 -109 25 -23 22
-25 31 -25 127 0 80 8 139 35 263 92 423 85 789 -20 1156 -29 99 -45 144 -92
258 -5 10 -2 12 8 7 8 -4 5 1 -7 11 -11 10 -36 45 -54 78 -172 314 -440 570
-723 691 -85 36 -91 38 -83 26 3 -5 10 -39 16 -76 9 -58 7 -93 -20 -279 -34
-229 -33 -263 4 -342 41 -86 104 -136 209 -165 26 -7 46 -15 43 -17 -8 -8
-120 19 -156 37 -50 26 -105 87 -130 143 -32 72 -35 136 -11 273 25 144 41
292 34 311 -4 9 -13 3 -30 -19 -34 -48 -124 -104 -184 -117 -29 -6 -54 -9 -56
-7 -3 2 10 7 28 11 92 20 183 85 219 156 20 38 17 65 -15 164 -6 17 -5 18 7 5
7 -8 51 -30 98 -49z m-1191 -451 c-43 -23 -56 -37 -62 -70 -4 -22 -4 -21 -6 6
-1 33 18 56 59 73 42 16 47 11 9 -9z m881 -234 c0 -2 -8 -10 -17 -17 -16 -13
-17 -12 -4 4 13 16 21 21 21 13z m136 -126 c-36 -54 -42 -51 -8 4 15 24 29 42
31 40 2 -2 -8 -22 -23 -44z m-249 -184 c-14 -31 -28 -56 -31 -56 -2 0 8 27 22
60 14 32 28 57 30 55 2 -2 -7 -29 -21 -59z m663 -16 c-11 -11 -20 -33 -20 -50
0 -60 51 -107 163 -148 70 -27 153 -68 161 -81 4 -5 -11 -1 -31 10 -21 10 -78
31 -127 46 -101 31 -141 54 -173 102 -31 46 -30 86 3 116 32 30 53 34 24 5z
m-15 -214 c170 -45 228 -168 123 -262 -25 -23 -81 -54 -97 -54 -20 0 2 30 37
52 80 49 103 106 66 164 -31 47 -126 91 -205 96 -22 1 -39 6 -39 10 0 12 59 9
115 -6z m-190 -20 c-82 -31 -119 -49 -127 -61 -5 -6 -8 -6 -8 2 0 21 127 82
170 82 17 0 5 -8 -35 -23z m528 -188 c58 -41 84 -137 52 -197 -34 -67 -78 -86
-283 -120 -82 -13 -144 -50 -167 -97 -30 -64 -1 -120 99 -183 36 -22 71 -50
80 -63 24 -33 20 -82 -9 -116 -22 -26 -51 -41 -188 -99 -21 -9 -52 -32 -68
-51 -25 -29 -30 -41 -25 -66 9 -43 42 -73 97 -87 42 -11 50 -10 90 10 l44 23
-23 -25 c-67 -72 -255 -55 -321 29 -21 27 -30 101 -11 89 6 -4 8 -10 5 -15 -3
-4 2 -13 10 -20 13 -11 14 -10 9 3 -8 23 42 124 69 138 20 11 21 11 9 -4 -11
-13 -10 -15 8 -10 12 3 24 12 27 20 3 8 29 25 57 37 28 13 59 32 69 43 17 20
17 20 -35 7 -29 -8 -62 -13 -73 -13 -17 1 -17 2 -2 6 9 2 17 11 17 19 0 8 5
14 11 14 5 0 8 4 4 9 -3 5 9 23 26 39 l31 29 -38 23 c-85 51 -122 106 -129
193 -4 49 -4 50 5 14 24 -92 77 -159 162 -203 67 -34 69 -30 13 22 -45 41 -47
45 -23 39 l28 -5 -25 36 c-17 26 -25 50 -25 82 0 38 5 50 38 82 35 35 130 80
170 80 13 0 14 2 4 9 -9 5 6 13 45 25 148 42 214 127 168 215 -8 16 -27 38
-42 50 -35 27 -1 17 40 -11z m-1663 -259 c58 -11 126 -23 152 -26 26 -3 46 -9
44 -12 -3 -4 11 -5 30 -3 18 2 42 1 51 -3 10 -5 24 -7 32 -6 8 1 10 -2 6 -10
-10 -14 -306 -9 -317 6 -4 6 -8 2 -8 -9 0 -12 -5 -16 -16 -12 -9 3 -20 6 -26
6 -6 0 -7 7 -4 16 5 14 4 15 -8 5 -11 -10 -17 -8 -28 8 -8 12 -18 18 -21 15
-11 -11 -37 17 -37 38 0 16 5 19 23 14 12 -4 69 -16 127 -27z m357 -55 c-3 -3
-12 -4 -19 -1 -8 3 -5 6 6 6 11 1 17 -2 13 -5z m-317 -75 c0 -7 -28 -10 -77
-8 -86 2 -155 -6 -223 -26 -25 -7 -63 -16 -85 -20 -21 -4 -57 -16 -80 -27
l-40 -21 18 21 c18 20 129 66 199 82 52 13 288 12 288 -1z m550 -9 c-43 -34
-240 -128 -335 -160 -94 -32 -237 -59 -341 -65 -183 -10 -250 -130 -101 -182
46 -16 49 -18 24 -21 -44 -5 -124 26 -152 59 -30 37 -33 86 -6 121 48 60 168
98 381 118 182 18 414 77 510 130 45 25 51 25 20 0z m32 -37 c-50 -61 -65 -90
-52 -98 6 -4 3 -17 -10 -35 -19 -27 -28 -100 -12 -100 4 0 7 16 6 35 -1 19 2
33 6 30 18 -11 1 -68 -31 -102 -43 -44 -153 -134 -242 -197 -252 -177 -302
-256 -221 -346 43 -47 117 -84 216 -107 94 -21 112 -37 33 -28 -109 12 -279
54 -340 84 -128 63 -200 154 -199 251 1 124 70 191 339 327 209 106 314 168
450 267 49 36 91 66 93 66 2 0 -15 -21 -36 -47z m-1303 -607 c-2 -2 -42 -7
-88 -10 -58 -5 -81 -4 -76 3 3 6 40 11 87 11 45 0 79 -2 77 -4z m2539 -3 c-21
-2 -57 -2 -80 0 -24 2 -7 4 37 4 44 0 63 -2 43 -4z m-943 -83 c33 -10 51 -19
40 -19 -34 -1 -92 18 -117 40 -18 15 -18 17 -3 9 11 -6 47 -19 80 -30z m-502
-78 c13 -12 47 -35 77 -51 62 -34 62 -38 -1 -16 -81 29 -140 91 -139 147 1 18
5 15 21 -18 11 -23 30 -51 42 -62z m-518 -161 c12 -20 -46 -23 -314 -17 -303
8 -395 1 -467 -35 -60 -31 -129 -109 -155 -179 -30 -79 -23 -204 15 -278 l27
-53 -25 16 c-41 27 -61 96 -61 210 0 121 21 172 102 252 92 90 100 92 515 92
209 1 359 -3 363 -8z m2005 -1 c0 -7 -242 -10 -706 -10 -467 0 -703 3 -699 10
4 7 250 10 706 10 459 0 699 -3 699 -10z m-2058 -142 c-20 -20 -14 -57 35
-203 33 -101 54 -148 75 -168 15 -16 28 -30 28 -33 0 -2 -36 -4 -80 -4 -76 0
-98 9 -65 28 13 7 13 14 4 42 -6 19 -17 40 -23 47 -19 20 -79 26 -100 10 -27
-20 -25 -71 4 -102 l23 -25 -86 0 c-51 0 -87 4 -87 10 0 6 4 10 10 10 16 0 35
48 78 195 22 77 43 147 47 156 3 9 -1 24 -10 33 -15 15 -10 16 71 16 69 0 85
-3 76 -12z m-418 -30 c12 -6 22 -12 24 -13 2 -2 -5 -16 -15 -33 -17 -28 -20
-29 -43 -16 -56 31 -146 8 -169 -43 -27 -59 -6 -154 41 -187 31 -22 97 -20
128 4 25 20 57 24 97 14 21 -6 20 -8 -20 -42 -83 -69 -156 -80 -238 -35 -69
37 -109 99 -109 170 0 97 49 165 137 189 51 14 132 10 167 -8z m1016 14 c0 -4
-7 -18 -16 -30 -13 -20 -24 -22 -95 -22 l-79 0 0 -46 0 -46 88 2 c113 3 113 3
75 -20 -18 -11 -33 -24 -33 -30 0 -6 -28 -10 -66 -10 l-66 0 4 -61 c4 -54 9
-66 36 -90 18 -16 32 -31 32 -34 0 -3 -43 -5 -95 -5 -52 0 -95 3 -95 7 0 3 8
15 18 26 15 17 17 40 16 174 -1 132 -4 156 -19 173 -18 20 -17 20 138 20 87 0
157 -3 157 -8z m784 -32 c-29 -43 -44 -49 -68 -25 -8 8 -17 15 -20 15 -8 0 -6
-141 3 -222 5 -49 13 -74 29 -91 12 -13 22 -26 22 -30 0 -4 -40 -7 -90 -7 -49
0 -90 2 -90 5 0 3 10 19 23 36 20 28 22 44 25 170 3 136 -2 156 -28 124 -25
-30 -82 -9 -73 26 9 31 37 38 171 38 l122 1 -26 -40z m406 32 c0 -5 -9 -18
-20 -30 -18 -19 -32 -22 -90 -22 l-70 0 0 -46 0 -47 85 5 c47 2 85 3 85 2 0
-2 -12 -16 -27 -33 -24 -25 -37 -30 -83 -33 l-55 -3 -3 -47 c-2 -37 1 -51 17
-67 26 -26 72 -27 102 -2 18 15 28 16 46 8 28 -13 29 -31 3 -57 -18 -18 -33
-20 -162 -20 l-141 0 24 26 c23 24 24 33 27 171 3 136 2 148 -18 175 l-21 28
151 0 c82 0 150 -4 150 -8z m450 -4 c0 -6 -7 -20 -17 -30 -13 -15 -31 -18
-100 -18 l-83 0 0 -50 0 -51 53 6 c28 3 69 8 90 11 54 6 60 -2 25 -36 -27 -28
-35 -30 -99 -30 l-69 0 0 -52 c0 -29 4 -59 8 -66 14 -21 74 -25 116 -8 21 9
40 16 43 16 2 0 3 -17 1 -37 l-3 -38 -147 -3 c-82 -1 -148 0 -148 3 0 3 10 19
23 36 20 27 22 44 25 161 3 120 2 133 -17 159 -12 16 -21 31 -21 34 0 3 72 5
160 5 116 0 160 -3 160 -12z m-1226 -23 c-15 -23 -22 -25 -91 -25 l-74 0 3
-47 3 -48 87 3 88 4 -29 -30 c-23 -26 -37 -31 -82 -34 l-54 -3 0 -57 c0 -48 5
-62 28 -86 15 -15 27 -31 27 -35 0 -4 -45 -7 -101 -7 l-101 0 26 31 c25 30 26
34 26 176 0 122 -3 149 -17 165 -16 17 -11 18 131 18 l146 0 -16 -25z m-1778
-456 c19 -22 19 -22 -3 -10 -24 12 -39 31 -25 31 5 0 17 -10 28 -21z m493 -44
c212 -1 479 -3 594 -4 130 0 207 -5 207 -11 0 -15 -1156 -14 -1201 1 -48 17
-62 33 -20 24 19 -4 208 -8 420 -10z m1294 -12 c-7 -2 -19 -2 -25 0 -7 3 -2 5
12 5 14 0 19 -2 13 -5z m1042 -3 c-7 -12 -890 -12 -975 0 -30 4 178 8 463 9
343 1 516 -2 512 -9z m-2781 -153 c17 -18 38 -46 47 -63 28 -53 68 -64 238
-64 128 0 151 -2 151 -15 0 -13 -25 -15 -166 -15 -152 0 -170 2 -205 22 -26
14 -46 37 -60 65 -28 57 -52 73 -115 73 -57 0 -84 7 -84 21 0 5 36 9 81 9 78
0 82 -1 113 -33z m3006 24 c0 -15 -28 -21 -96 -21 -72 0 -87 -10 -133 -88 -38
-64 -64 -72 -246 -72 -121 0 -156 3 -153 13 3 8 47 13 154 17 169 6 176 8 227
86 18 27 43 54 57 61 28 14 190 18 190 4z m-2205 -61 c-3 -5 -19 -10 -35 -10
-24 0 -31 -5 -36 -27 -9 -35 7 -57 45 -61 45 -5 38 -22 -8 -22 -30 0 -44 6
-55 22 -36 51 -7 108 55 108 24 0 38 -4 34 -10z m163 -49 c26 -69 26 -71 7
-71 -8 0 -15 7 -15 15 0 10 -10 15 -30 15 -18 0 -33 -6 -36 -15 -4 -8 -12 -15
-20 -15 -17 0 -17 -1 2 46 9 22 20 49 25 62 16 41 42 26 67 -37z m167 49 c-3
-5 -15 -10 -26 -10 -16 0 -19 -7 -19 -55 0 -42 -3 -55 -15 -55 -12 0 -15 13
-15 55 0 42 -3 55 -15 55 -8 0 -15 5 -15 10 0 6 25 10 56 10 34 0 53 -4 49
-10z m135 1 c0 -6 -14 -11 -32 -13 -41 -4 -47 -24 -9 -31 36 -8 58 -41 40 -63
-13 -15 -89 -20 -89 -5 0 6 14 11 32 13 43 4 46 23 6 34 -33 10 -45 31 -34 60
6 16 86 20 86 5z m160 -1 c0 -5 -15 -10 -34 -10 -21 0 -36 -6 -40 -15 -4 -11
2 -15 24 -15 38 0 39 -18 3 -22 -17 -2 -29 -10 -31 -20 -3 -15 4 -18 32 -18
20 0 36 -4 36 -10 0 -5 -20 -10 -45 -10 l-45 0 0 65 0 65 50 0 c28 0 50 -4 50
-10z m150 0 c0 -5 -16 -10 -35 -10 -24 0 -35 -5 -35 -15 0 -9 9 -15 25 -15 14
0 25 -4 25 -10 0 -5 -11 -10 -25 -10 -18 0 -25 -5 -25 -20 0 -15 7 -20 29 -20
17 0 33 -4 36 -10 4 -6 -13 -10 -44 -10 l-51 0 0 65 0 65 50 0 c28 0 50 -4 50
-10z m230 0 c0 -5 -13 -10 -30 -10 -20 0 -30 -5 -30 -15 0 -8 9 -15 19 -15 11
0 23 -4 26 -10 4 -6 -5 -10 -19 -10 -19 0 -26 -5 -26 -20 0 -16 7 -20 30 -20
17 0 30 -4 30 -10 0 -5 -20 -10 -45 -10 l-45 0 0 65 0 65 45 0 c25 0 45 -4 45
-10z m130 0 c0 -5 -13 -10 -29 -10 -44 0 -47 -17 -6 -34 65 -27 55 -76 -16
-76 -47 0 -52 17 -7 22 43 4 47 25 6 36 -33 8 -45 29 -34 58 6 16 86 20 86 4z
m140 0 c0 -5 -11 -10 -25 -10 -16 0 -25 -6 -25 -15 0 -9 9 -15 25 -15 14 0 25
-4 25 -10 0 -5 -11 -10 -25 -10 -21 0 -25 -5 -25 -30 0 -20 -5 -30 -15 -30
-12 0 -15 14 -15 65 l0 65 40 0 c22 0 40 -4 40 -10z m150 0 c0 -5 -9 -10 -20
-10 -18 0 -20 -7 -20 -55 0 -42 -3 -55 -15 -55 -12 0 -15 13 -15 55 0 48 -2
55 -20 55 -11 0 -20 5 -20 10 0 6 25 10 55 10 30 0 55 -4 55 -10z"/>
<path d="M2604 4305 c-40 -21 -54 -52 -54 -124 0 -115 51 -224 107 -229 44 -4
72 13 90 56 19 44 21 173 4 224 -23 70 -88 102 -147 73z"/>
<path d="M2669 3700 c-46 -57 -140 -130 -224 -174 l-70 -37 48 5 c70 8 135 40
190 94 45 44 104 138 94 149 -3 2 -20 -14 -38 -37z"/>
<path d="M2445 3698 c-33 -17 -85 -39 -115 -50 l-55 -18 52 4 c56 5 137 41
167 75 24 27 23 26 -49 -11z"/>
<path d="M2100 3587 c0 -3 16 -12 35 -21 25 -12 45 -15 72 -9 l38 7 -55 7
c-30 4 -63 10 -72 14 -10 4 -18 5 -18 2z"/>
<path d="M2443 3303 c-85 -5 -80 -20 7 -22 57 -1 70 1 70 14 0 8 -3 14 -7 13
-5 -1 -36 -3 -70 -5z"/>
<path d="M4220 3861 c0 -5 5 -13 10 -16 6 -3 10 -2 10 4 0 5 -4 13 -10 16 -5
3 -10 2 -10 -4z"/>
<path d="M3450 2305 c-24 -26 -29 -71 -11 -102 9 -15 10 -12 11 17 0 19 9 50
20 68 11 18 20 35 20 37 0 12 -19 3 -40 -20z"/>
<path d="M3415 2170 c10 -11 20 -20 23 -20 3 0 -3 9 -13 20 -10 11 -20 20 -23
20 -3 0 3 -9 13 -20z"/>
<path d="M2841 2574 c0 -11 3 -14 6 -6 3 7 2 16 -1 19 -3 4 -6 -2 -5 -13z"/>
<path d="M2705 2479 c-38 -21 -153 -66 -255 -99 -177 -58 -250 -93 -271 -131
-7 -15 -2 -14 34 6 23 13 87 35 142 50 105 27 352 141 410 189 42 35 22 30
-60 -15z"/>
<path d="M2308 2163 c-31 -34 -48 -66 -48 -90 1 -11 6 -7 14 13 8 17 30 44 49
60 20 15 33 32 31 36 -9 14 -19 9 -46 -19z"/>
<path d="M2078 1555 l-15 -55 32 0 33 0 -13 51 c-8 28 -16 53 -18 55 -2 2 -11
-21 -19 -51z"/>
<path d="M2367 919 c-7 -27 -4 -32 17 -27 12 2 13 7 2 27 l-13 23 -6 -23z"/>
</g>
</svg>
